<?xml version="1.0" encoding="UTF-8" standalone="no"?>
<svg
   version="1.1"
   viewBox="0 0 24.9 9.22"
   id="svg213"
   sodipodi:docname="latexlogo.svg"
   inkscape:version="1.2.2 (732a01da63, 2022-12-09)"
   xmlns:inkscape="http://www.inkscape.org/namespaces/inkscape"
   xmlns:sodipodi="http://sodipodi.sourceforge.net/DTD/sodipodi-0.dtd"
   xmlns="http://www.w3.org/2000/svg"
   xmlns:svg="http://www.w3.org/2000/svg">
  <defs
     id="defs217" />
  <sodipodi:namedview
     id="namedview215"
     pagecolor="#ffffff"
     bordercolor="#999999"
     borderopacity="1"
     inkscape:showpageshadow="0"
     inkscape:pageopacity="0"
     inkscape:pagecheckerboard="0"
     inkscape:deskcolor="#d1d1d1"
     showgrid="false"
     inkscape:zoom="64"
     inkscape:cx="12.609375"
     inkscape:cy="3.8515625"
     inkscape:window-width="2560"
     inkscape:window-height="1334"
     inkscape:window-x="2869"
     inkscape:window-y="-11"
     inkscape:window-maximized="1"
     inkscape:current-layer="svg213" />
  <title
     id="title197">LaTeX logo colored</title>
  <desc
     id="desc199">derived from https://commons.wikimedia.org/wiki/File:LaTeX_logo.svg</desc>
  <g
     transform="translate(0 .1)"
     id="g211">
    <path
       d="m5.46 4.23 h-.25c-.1 1.02-.24 2.26-2 2.26h-.81c-.47 0-.49-.07-.49-.4v-5.31c0-.34 0-.48.94-.48h.33v-.3c-.36.03-1.26.03-1.67.03-.39 0-1.17 0-1.51-.03  v.3h.23c.77 0 .79.11.79.47v5.25c0 .36-.02.47-.79.47h-.23v.31h5.19z"
       fill="#f0f"
       id="path201" />
    <path
       d="m5.09 .01 c-.04-.12-.06-.16-.19-.16s-.16.04-.2.16l-1.61 4.08c-.07.17-.19.48-.81.48v.25h1.55v-.25c-.31 0-.5-.14-.5-.34 0-.05.01-.07.03-.14 0 0 .34-.86.34-.86 h1.98l.4 1.02c.02.04.04.09.04.12 0 .2-.38.2-.57.2v.25h1.97v-.25h-.14c-.47 0-.52-.07-.59-.27 0 0-1.7-4.29-1.7-4.29zm-.4.71.89 2.26h-1.78z"
       fill="#80f"
       id="path203" />
    <path
       d="m13.3 0.06 h-6.09s-.18 2.24-.18 2.24h.24c.14-1.61.29-1.94 1.8-1.94.18 0 .44 0 .54.02.21.04.21.15.21.38v5.25c0 .34 0 .48-1.05.48h-.4v.31c.41-.03 1.42-.03 1.88-.03 s1.49 0 1.9.03v-.31h-.4c-1.05 0-1.05-.14-1.05-.48v-5.25c0-.2 0-.34.18-.38.11-.02.38-.02.57-.02 1.5 0 1.65.33 1.79 1.94h.25s-.19-2.24-.19-2.24z"
       fill="#08f"
       id="path205" />
    <path
       d="m18.66 6.48 h-.25c-.25 1.53-.48 2.26-2.19 2.26h-1.32c-.47 0-.49-.07-.49-.4v-2.66h.89c.97 0 1.08.32 1.08 1.17h.25v-2.64h-.25c0 .85-.11 1.16-1.08 1.16h-.89v-2.39 c0-.33.02-.4.49-.4h1.28c1.53 0 1.79.55 1.95 1.94h.25l-.28-2.24h-5.6v.3h.23c.77 0 .79.11.79.47v5.22c0 .36-.02.47-.79.47h-.23v.31h5.74z"
       fill="#0ff"
       id="path207" />
    <path
       d="m21.67 2.95 1.37-2c.21-.32.55-.64 1.44-.65v-.3h-2.38v.3c.4.01.62.23.62.46 0 .1-.02.12-.09.23 0 0-1.14 1.68-1.14 1.68l-1.28-1.92c-.02-.03-.07-.11-.07-.15 0-.12.22-.29.64-.3 v-.3c-.34.03-1.07.03-1.45.03-.31 0-.93-.01-1.3-.03v.3h.19c.55 0 .74.07.93.35 0 0 1.83 2.77 1.83 2.77l-1.63 2.41c-.14.2-.44.66-1.44.66v.31h2.38v-.31c-.46-.01-.63-.28-.63-.46 0-.09.03-.13.1-.24 l1.41-2.09 1.58 2.38c.02.04.05.08.05.11 0 .12-.22.29-.65.3v.31c.35-.03 1.08-.03 1.45-.03.42 0 .88.01 1.3.03v-.31h-.19c-.52 0-.73-.05-.94-.36 0 0-2.1-3.18-2.1-3.18z"
       fill="#f80"
       id="path209" />
  </g>
  <path
     style="fill:#bfbfbf;stroke-width:0.0590551"
     d="M 0,6.7524811 V 6.6065245 L 0.31640625,6.5961895 C 0.78203545,6.5809805 0.9259523,6.5400839 0.99365176,6.4037381 1.0225655,6.3455061 1.0235604,6.2621356 1.0276369,3.5558956 1.0304245,1.7052311 1.0264644,0.73874551 1.0158566,0.68089558 0.99066176,0.54349487 0.92744819,0.47748795 0.78073334,0.43538253 0.71974086,0.41787841 0.59589097,0.40855705 0.34765625,0.40278769 L 0,0.39470761 V 0.24646336 C 0,0.11098207 0.00235414,0.09928421 0.02734375,0.11059059 0.06460443,0.12744893 2.6009597,0.13726635 2.9179736,0.1217793 L 3.1718845,0.109375 3.1718798,0.25211725 3.171875,0.3948595 2.7460937,0.4028505 C 2.2824014,0.41155316 2.1598664,0.42837811 2.037375,0.50016284 1.9017987,0.57961584 1.9146433,0.27990195 1.9094844,3.484375 c -0.00252,1.5640625 -1.578e-4,2.8747759 0.00524,2.9126966 0.011827,0.083015 0.068781,0.1462178 0.1568146,0.1740178 0.087399,0.0276 1.1199821,0.03913 1.388233,0.015501 1.1008395,-0.096966 1.5832035,-0.649146 1.7272219,-1.9772155 0.00932,-0.085937 0.020894,-0.1826172 0.025721,-0.2148438 l 0.00878,-0.058594 h 0.1167714 0.1167715 l -0.00918,0.066406 C 5.4331714,4.4941444 5.1875,6.8448855 5.1875,6.8745037 c 0,0.021399 -0.274712,0.023934 -2.59375,0.023934 H 0 Z"
     id="path978" />
  <path
     style="fill:#808080;stroke-width:0.0417583"
     d="M 2.2870485,4.7959472 V 4.680817 l 0.074578,-0.00662 C 2.660539,4.6476422 2.816562,4.5857979 2.9478883,4.441811 2.98017,4.406417 3.0232808,4.3442998 3.0436899,4.3037726 3.0640991,4.2632456 3.4490091,3.2957189 3.8990456,2.1537133 4.3490819,1.0117079 4.726092,0.06034118 4.7368458,0.03956507 4.7690327,-0.02262 4.8034294,-0.04069534 4.8906169,-0.04124115 c 0.111126,-6.9567e-4 0.1375087,0.01639814 0.1782652,0.11550095 0.01819,0.0442309 0.419887,1.0573873 0.8926597,2.2514586 0.4727726,1.1940713 0.8719291,2.1899733 0.8870143,2.2131155 0.060521,0.092845 0.169302,0.1244341 0.4683418,0.1360028 l 0.1961116,0.00759 v 0.114327 0.1143271 H 6.5352134 5.5574174 V 4.7961311 4.6811846 l 0.1187718,-0.00677 C 5.9822153,4.6569656 6.1208931,4.5959786 6.1208931,4.478843 6.1208931,4.449544 6.0866111,4.3481225 6.0175467,4.1730937 5.9607062,4.0290427 5.8625123,3.7783149 5.7993379,3.6159189 L 5.6844756,3.3206534 4.6901067,3.3205407 3.6957378,3.320428 3.5256602,3.7528327 C 3.3209345,4.2733265 3.3226104,4.2681908 3.3290116,4.3554494 3.3420904,4.5337357 3.4899492,4.6430238 3.7592669,4.6734677 l 0.063529,0.00718 V 4.7958638 4.9110776 H 3.0549223 2.2870485 Z M 5.5795144,3.0752145 c 0,-0.00934 -0.6754225,-1.734632 -0.8702221,-2.22288491 -0.011781,-0.0295289 -0.01955,-0.0380052 -0.025317,-0.0276214 C 4.668442,0.85268043 3.8087085,3.0381972 3.8033995,3.0632087 l -0.00528,0.024859 h 0.8906957 c 0.6698111,0 0.8906957,-0.00319 0.8906957,-0.012853 z"
     id="path1105" />
  <path
     style="fill:#808080;stroke-width:0.0417583"
     d="M 8.3747959,6.7409297 V 6.5928093 l 0.4612767,-0.00532 c 0.3516706,-0.00406 0.4875297,-0.00958 0.5717621,-0.023234 0.225042,-0.036489 0.3254855,-0.085038 0.3811748,-0.1842387 l 0.027621,-0.049203 V 3.4802912 0.62976698 l -0.025559,-0.047888 C 9.7585967,0.5210331 9.6857792,0.48557589 9.5579737,0.46837595 9.4159572,0.44926352 8.6064903,0.4616745 8.4245144,0.48575448 7.7259414,0.57819326 7.4745701,0.8519144 7.3486449,1.6572815 7.3249592,1.8087652 7.2873311,2.1326501 7.2745173,2.2953349 l -0.00761,0.096675 H 7.1524125 c -0.076757,0 -0.1144903,-0.00406 -0.1144903,-0.012306 0,-0.00677 0.039775,-0.5068002 0.088388,-1.1111829 0.048614,-0.60438274 0.088388,-1.10100161 0.088388,-1.10359754 0,-0.002596 1.3671625,-0.00472 3.0381388,-0.00472 h 3.038139 l 0.0051,0.0248592 c 0.0045,0.0221666 0.184381,2.15565354 0.18353,2.17693684 -1.9e-4,0.00476 -0.05356,0.00725 -0.118593,0.00552 l -0.118247,-0.00314 -0.02476,-0.2474774 C 13.103491,0.97252668 12.906849,0.6425224 12.26366,0.51538003 12.032916,0.46976765 11.93678,0.46403882 11.402097,0.46403882 H 10.88834 l -0.06612,0.0331456 c -0.05548,0.0278114 -0.0706,0.0419885 -0.09391,0.0880934 l -0.02779,0.0549478 V 3.4799963 c 0,2.5784908 0.0016,2.8433285 0.01766,2.8784405 0.08317,0.1821143 0.310017,0.2320194 1.05465,0.2320194 h 0.369524 v 0.1492969 0.1492971 l -0.317645,-0.00843 c -0.174705,-0.00464 -0.879464,-0.00843 -1.566131,-0.00843 -0.6866674,0 -1.3914263,0.00379 -1.5661314,0.00843 l -0.3176457,0.00843 z"
     id="path1107" />
  <path
     style="fill:#808080;stroke-width:0.0417583"
     d="M 12.506951,8.9949607 V 8.8472518 l 0.301073,-0.00582 c 0.418327,-0.00809 0.55786,-0.036232 0.642152,-0.1295327 0.07295,-0.080743 0.06772,0.1475045 0.06772,-2.9556087 V 2.927864 l -0.0242,-0.052399 c -0.04312,-0.093337 -0.106623,-0.13461 -0.260008,-0.1689714 -0.05977,-0.013389 -0.163325,-0.019549 -0.403567,-0.024006 l -0.32317,-0.006 V 2.5287266 2.3809611 h 2.795282 c 1.920574,0 2.795281,0.00358 2.795281,0.011444 0,0.014723 0.262919,2.1239389 0.271609,2.1789296 l 0.0065,0.041432 H 18.254772 18.133875 L 18.120201,4.493995 C 18.112701,4.42867 18.091681,4.28573 18.073551,4.1763494 17.908619,3.1818122 17.592061,2.8331584 16.73804,2.7054328 c -0.109959,-0.016445 -0.250967,-0.019483 -1.07552,-0.023166 -0.605371,-0.0027 -0.974896,-2.024e-4 -1.020577,0.00691 -0.104656,0.016293 -0.168036,0.051406 -0.201493,0.1116292 l -0.02762,0.049718 -0.003,1.3129131 -0.003,1.3129132 0.60517,-0.00466 c 0.643871,-0.00495 0.703402,-0.0093 0.882019,-0.064403 0.280323,-0.086478 0.412688,-0.2563493 0.464098,-0.5956044 0.0088,-0.057754 0.01918,-0.1932573 0.02316,-0.3011187 l 0.0073,-0.1961117 h 0.11979 0.119791 v 1.3147767 1.3147767 h -0.119791 -0.11979 l -0.0073,-0.1961117 C 16.366289,6.3438374 16.307891,6.1399567 16.167077,6.000262 16.06659,5.9005728 15.939965,5.8441022 15.727602,5.8042694 15.617113,5.7835455 15.551592,5.7809825 15.006684,5.7760706 l -0.599383,-0.0054 v 1.4147679 c 0,1.0136549 0.0036,1.4313676 0.01254,1.4733166 0.01622,0.075728 0.06983,0.1313568 0.153492,0.1592703 0.05606,0.018705 0.123607,0.020456 0.927773,0.024049 0.876763,0.00392 1.097178,-0.00223 1.33135,-0.037151 0.235792,-0.03516 0.418768,-0.089032 0.598041,-0.1760773 0.381332,-0.1851542 0.614573,-0.5000433 0.776186,-1.0478949 0.0427,-0.1447511 0.108453,-0.4273864 0.134503,-0.5781586 0.0075,-0.04363 0.0171,-0.084824 0.02126,-0.091543 0.0049,-0.008 0.0474,-0.011129 0.123117,-0.00906 l 0.115568,0.00315 -0.182547,1.118665 -0.182547,1.118665 h -2.864541 -2.864542 z"
     id="path1109" />
  <path
     style="fill:#808080;stroke-width:0.11811"
     d="M 17.9375,6.7536406 V 6.6166559 l 0.210937,-0.021709 c 0.459809,-0.047321 0.786885,-0.181681 1.015711,-0.4172441 0.07825,-0.080549 0.523717,-0.7117562 0.989935,-1.4026819 l 0.84767,-1.256229 -0.94788,-1.4312711 C 19.532539,1.300322 19.055128,0.61194991 18.99296,0.55780537 18.855543,0.43812337 18.657338,0.390625 18.295337,0.390625 H 18.03125 l -7e-6,-0.1328125 -8e-6,-0.1328125 h 1.359371 1.35937 l 1.2e-5,0.12566252 1.2e-5,0.12566252 -0.18699,0.035536 c -0.102844,0.0195448 -0.236462,0.0661113 -0.296927,0.10348116 -0.21195,0.13099225 -0.215572,0.12249425 0.526997,1.2364903 0.371676,0.5575859 0.686399,1.0137925 0.699385,1.0137925 0.01299,0 0.294212,-0.3997294 0.624948,-0.8882875 0.569315,-0.840985 0.601337,-0.8960963 0.601337,-1.03492649 0,-0.12793856 -0.01503,-0.16167331 -0.117892,-0.264531 C 22.492432,0.46945387 22.316339,0.39123475 22.179687,0.39079928 22.135732,0.39065919 22.125,0.36302885 22.125,0.25 V 0.109375 h 1.171875 1.171875 V 0.25 0.390625 l -0.148438,5.425e-4 c -0.40725,0.001489 -0.865867,0.17883216 -1.105585,0.42752087 -0.21284,0.22080433 -1.568621,2.21758443 -1.538914,2.26649633 0.205227,0.3379037 2.108497,3.1937572 2.179486,3.2703156 0.152922,0.1649178 0.318936,0.2236078 0.692327,0.2447525 l 0.327374,0.018539 7e-6,0.128104 6e-6,0.1281041 h -1.359371 -1.35937 l -1.1e-5,-0.1292644 -1.1e-5,-0.129264 0.148437,-0.022147 c 0.27513,-0.04105 0.507813,-0.1794413 0.507813,-0.3020278 0,-0.060907 -1.609379,-2.4962372 -1.648256,-2.4941591 -0.01299,6.937e-4 -0.357603,0.4997869 -0.765807,1.1090941 -0.622172,0.9286909 -0.742187,1.1258143 -0.742187,1.2190393 0,0.2322135 0.155635,0.385496 0.463589,0.4565803 l 0.161411,0.037258 V 6.7553672 6.890625 H 19.109375 17.9375 Z"
     id="path1111" />
</svg>
